HIERARCHY
ROOT Hips
{
	OFFSET	0.00	0.00	0.00
	CHANNELS 6 Xposition Yposition Zposition Zrotation Xrotation Yrotation
	JOINT LeftUpLeg
	{
		OFFSET	 0.126116	-0.065224	 0.014019
		CHANNELS 3 Zrotation Xrotation Yrotation
		JOINT LeftLeg
		{
			OFFSET	 0.000000	 0.569914	 0.000000
			CHANNELS 3 Zrotation Xrotation Yrotation
			JOINT LeftFoot
			{
				OFFSET	 0.000000	 0.544423	 0.000000
				CHANNELS 3 Zrotation Xrotation Yrotation
				JOINT LeftToeBase
				{
					OFFSET	 0.000000	 0.207117	 0.000000
					CHANNELS 3 Zrotation Xrotation Yrotation
					End Site
					{
						OFFSET	 0.000000	 0.207117	 0.000000
					}
				}
			}
		}
	}
	JOINT RightUpLeg
	{
		OFFSET	-0.124023	-0.065224	 0.008373
		CHANNELS 3 Zrotation Xrotation Yrotation
		JOINT RightLeg
		{
			OFFSET	 0.000000	 0.570047	 0.000000
			CHANNELS 3 Zrotation Xrotation Yrotation
			JOINT RightFoot
			{
				OFFSET	 0.000000	 0.544354	 0.000000
				CHANNELS 3 Zrotation Xrotation Yrotation
				JOINT RightToeBase
				{
					OFFSET	 0.000000	 0.207540	 0.000000
					CHANNELS 3 Zrotation Xrotation Yrotation
					End Site
					{
						OFFSET	 0.000000	 0.207540	 0.000000
					}
				}
			}
		}
	}
	JOINT Spine
	{
		OFFSET	 0.000184	 0.117403	 0.007763
		CHANNELS 3 Zrotation Xrotation Yrotation
		JOINT Spine1
		{
			OFFSET	 0.000000	 0.137269	 0.000000
			CHANNELS 3 Zrotation Xrotation Yrotation
			JOINT Spine2
			{
				OFFSET	 0.000000	 0.156879	 0.000000
				CHANNELS 3 Zrotation Xrotation Yrotation
				JOINT LeftShoulder
				{
					OFFSET	 0.080501	 0.160143	 0.002496
					CHANNELS 3 Zrotation Xrotation Yrotation
					JOINT LeftArm
					{
						OFFSET	 0.000000	 0.164363	 0.000000
						CHANNELS 3 Zrotation Xrotation Yrotation
						JOINT LeftForeArm
						{
							OFFSET	 0.000000	 0.364576	 0.000000
							CHANNELS 3 Zrotation Xrotation Yrotation
							JOINT LeftHand
							{
								OFFSET	 0.000000	 0.360812	 0.000000
								CHANNELS 3 Zrotation Xrotation Yrotation
								JOINT LeftHandIndex1
								{
									OFFSET	 0.000000	 0.086006	 0.000000
									CHANNELS 3 Zrotation Xrotation Yrotation
									JOINT LeftHandIndex2
									{
										OFFSET	 0.000000	 0.047237	 0.000000
										CHANNELS 3 Zrotation Xrotation Yrotation
										JOINT LeftHandIndex3
										{
											OFFSET	-0.004284	 0.038165	 0.000551
											CHANNELS 3 Zrotation Xrotation Yrotation
											End Site
											{
												OFFSET	-0.004284	 0.038165	 0.000551
											}
										}
									}
								}
							}
						}
					}
				}
				JOINT Neck
				{
					OFFSET	 0.000000	 0.176489	 0.000000
					CHANNELS 3 Zrotation Xrotation Yrotation
					JOINT Head
					{
						OFFSET	 0.000000	 0.077941	 0.001747
						CHANNELS 3 Zrotation Xrotation Yrotation
						End Site
						{
							OFFSET	 0.000000	 0.077941	 0.001747
						}
					}
				}
				JOINT RightShoulder
				{
					OFFSET	-0.080363	 0.159706	-0.000306
					CHANNELS 3 Zrotation Xrotation Yrotation
					JOINT RightArm
					{
						OFFSET	 0.000000	 0.164196	 0.000000
						CHANNELS 3 Zrotation Xrotation Yrotation
						JOINT RightForeArm
						{
							OFFSET	 0.000000	 0.365611	 0.000000
							CHANNELS 3 Zrotation Xrotation Yrotation
							JOINT RightHand
							{
								OFFSET	 0.000000	 0.360648	 0.000000
								CHANNELS 3 Zrotation Xrotation Yrotation
								JOINT RightHandIndex1
								{
									OFFSET	 0.000000	 0.069977	 0.000000
									CHANNELS 3 Zrotation Xrotation Yrotation
									JOINT RightHandIndex2
									{
										OFFSET	 0.000000	 0.052305	 0.000000
										CHANNELS 3 Zrotation Xrotation Yrotation
										JOINT RightHandIndex3
										{
											OFFSET	 0.009002	 0.042196	 0.000782
											CHANNELS 3 Zrotation Xrotation Yrotation
											End Site
											{
												OFFSET	 0.009002	 0.042196	 0.000782
											}
										}
									}
								}
							}
						}
					}
				}
			}
		}
	}
}
MOTION
Frames:    9
Frame Time: 0.03333334
 0.436631	 1.274073	 0.406757	 0.531331	-2.407928	-177.249900	 175.145300	 5.621161	 17.873270	 3.324127	-12.312620	 5.958021	 5.714021	 69.319650	-1.583920	 1.292262	 28.425850	-2.713146	-177.740700	 7.828152	-16.321780	-2.377038	-12.176770	 0.765205	 1.717222	 67.919880	-6.037932	-1.288183	 28.361890	 2.710176	-0.098529	 6.548060	-2.055868	 0.619949	-6.722340	-1.140032	 0.008030	 7.756563	 2.910837	-117.513100	-0.796339	 89.951120	-1.317424	 0.993125	-7.245718	 36.223750	-2.753093	 35.458730	-17.259820	-14.569900	-3.862258	-6.580301	 5.266122	 0.000000	 0.000000	 0.000000	 0.000000	 0.000000	 0.000000	 0.000000	 4.832493	 27.234080	 1.681971	-3.990015	-16.227520	 0.858105	 116.372700	-0.463673	-90.561050	-0.198028	 5.431384	 19.328820	-29.369590	 0.670373	-56.919620	-0.077418	-27.266790	 11.751490	 15.208500	 5.323790	 0.000000	 0.000000	 0.000000	 0.000000	 0.000000	 0.000000	 0.000000
 0.436678	 1.274713	 0.407774	 0.539706	-2.644606	-177.226800	 175.152500	 5.909853	 17.916920	 3.315403	-12.281360	 6.013456	 5.670416	 69.171610	-1.661069	 1.292262	 28.425850	-2.713146	-177.766600	 8.082532	-16.311390	-2.358013	-12.082340	 0.685589	 1.630201	 67.721420	-5.839024	-1.288183	 28.361890	 2.710176	-0.125669	 6.632911	-2.036983	 0.626183	-7.034697	-1.149356	 0.018365	 8.228621	 2.897698	-117.761700	-0.872073	 89.917100	-1.503874	 1.082667	-6.621496	 37.144790	-2.813062	 34.834600	-16.905650	-15.001760	-3.253522	-6.580301	 5.266122	 0.000000	 0.000000	 0.000000	 0.000000	 0.000000	 0.000000	 0.000000	 5.006795	 27.778040	 1.536989	-4.009142	-16.499170	 0.887460	 116.764800	-0.571774	-90.523330	-0.079331	 5.507382	 19.039000	-30.268460	 0.689005	-56.424430	-0.587275	-27.168010	 10.571020	 15.208500	 5.323790	 0.000000	 0.000000	 0.000000	 0.000000	 0.000000	 0.000000	 0.000000
 0.436718	 1.275317	 0.409449	 0.556154	-2.983575	-177.193800	 175.143500	 6.367870	 17.983940	 3.327112	-12.323350	 6.098046	 5.615275	 69.036930	-1.791596	 1.292262	 28.425850	-2.713146	-177.785100	 8.484001	-16.300880	-2.344549	-12.015330	 0.569133	 1.530067	 67.503960	-5.565556	-1.288183	 28.361890	 2.710176	-0.139396	 6.845979	-2.010907	 0.599605	-7.557329	-1.164752	 0.048774	 8.943004	 2.880209	-118.119900	-0.980928	 89.867540	-1.783075	 1.402937	-5.646516	 38.566570	-2.904177	 33.975070	-16.572360	-15.754110	-2.461503	-6.580301	 5.266122	 0.000000	 0.000000	 0.000000	 0.000000	 0.000000	 0.000000	 0.000000	 5.262289	 28.561190	 1.323453	-4.036624	-16.890160	 0.930647	 117.329800	-0.727020	-90.467700	 0.063890	 5.815026	 18.584760	-31.585080	 0.715973	-55.763650	-1.167025	-27.146750	 8.927073	 15.208500	 5.323790	 0.000000	 0.000000	 0.000000	 0.000000	 0.000000	 0.000000	 0.000000
 0.436730	 1.275785	 0.411807	 0.582585	-3.400965	-177.152200	 175.106200	 6.993100	 18.071950	 3.374258	-12.492350	 6.209338	 5.548978	 68.948430	-1.970753	 1.292262	 28.425850	-2.713146	-177.781800	 9.031533	-16.291290	-2.347360	-12.029390	 0.422983	 1.438561	 67.301310	-5.243416	-1.288183	 28.361890	 2.710176	-0.150870	 7.116762	-1.976860	 0.564782	-8.070472	-1.185171	 0.088083	 9.767552	 2.860537	-118.564600	-1.115539	 89.805090	-2.085368	 2.042053	-4.325244	 40.373910	-3.017393	 32.964170	-16.384400	-16.885460	-1.602314	-6.580301	 5.266122	 0.000000	 0.000000	 0.000000	 0.000000	 0.000000	 0.000000	 0.000000	 5.586855	 29.532270	 1.050505	-4.070600	-17.374940	 0.985707	 118.031200	-0.918942	-90.396510	 0.156492	 6.450587	 17.966500	-33.178040	 0.748078	-55.023210	-1.692960	-27.301530	 6.967906	 15.208500	 5.323790	 0.000000	 0.000000	 0.000000	 0.000000	 0.000000	 0.000000	 0.000000
 0.436704	 1.276097	 0.415140	 0.623470	-3.925194	-177.099300	 175.029000	 7.850784	 18.187620	 3.471316	-12.839510	 6.357407	 5.461336	 68.916010	-2.209888	 1.292262	 28.425850	-2.713146	-177.747000	 9.783305	-16.283250	-2.373730	-12.160400	 0.236841	 1.361734	 67.112500	-4.857209	-1.288183	 28.361890	 2.710176	-0.158661	 7.469371	-1.930580	 0.520001	-8.537497	-1.210940	 0.139194	 10.726450	 2.838294	-119.126800	-1.284950	 89.724680	-2.265781	 3.114918	-2.510823	 42.480870	-3.145590	 31.754230	-16.371620	-18.608050	-0.689241	-6.580301	 5.266122	 0.000000	 0.000000	 0.000000	 0.000000	 0.000000	 0.000000	 0.000000	 6.009501	 30.757970	 0.692395	-4.113325	-17.986840	 1.057584	 118.918200	-1.160249	-90.303190	 0.036397	 7.527380	 17.120420	-34.920320	 0.782479	-54.203930	-2.176846	-27.781840	 4.601051	 15.208500	 5.323790	 0.000000	 0.000000	 0.000000	 0.000000	 0.000000	 0.000000	 0.000000
 0.436646	 1.276218	 0.419425	 0.678604	-4.541096	-177.036000	 174.913300	 8.919696	 18.328520	 3.615383	-13.352970	 6.538281	 5.349130	 68.936840	-2.495662	 1.292262	 28.425850	-2.713146	-177.679900	 10.724620	-16.275970	-2.424099	-12.410410	 0.017795	 1.313014	 66.942860	-4.428063	-1.288183	 28.361890	 2.710176	-0.161911	 7.899192	-1.871477	 0.469226	-8.884477	-1.239658	 0.199791	 11.765900	 2.815281	-119.790800	-1.483955	 89.627590	-2.024418	 4.593047	-0.247899	 44.399660	-3.258683	 30.391990	-16.477570	-20.977170	 0.171131	-6.580301	 5.266122	 0.000000	 0.000000	 0.000000	 0.000000	 0.000000	 0.000000	 0.000000	 6.527492	 32.202540	 0.249623	-4.163429	-18.708080	 1.145749	 119.966200	-1.443275	-90.188190	-0.573882	 8.994085	 16.088830	-36.324710	 0.809638	-53.388120	-2.676568	-28.713080	 1.951239	 15.208500	 5.323790	 0.000000	 0.000000	 0.000000	 0.000000	 0.000000	 0.000000	 0.000000
 0.436591	 1.276180	 0.426884	 0.774228	-5.564875	-176.929100	 174.713800	 10.718410	 18.563690	 3.856867	-14.208560	 6.839598	 5.142348	 68.979930	-2.948115	 1.292262	 28.425850	-2.713146	-177.561200	 12.320340	-16.260320	-2.512594	-12.848360	-0.337442	 1.289310	 66.677800	-3.764663	-1.288183	 28.361890	 2.710176	-0.165693	 8.639749	-1.762248	 0.400449	-9.154661	-1.280421	 0.294956	 13.358140	 2.783780	-120.897700	-1.812843	 89.460760	-0.334375	 7.087803	 3.417338	 45.804950	-3.339046	 28.216700	-16.457050	-25.211490	 1.148024	-6.580301	 5.266122	 0.000000	 0.000000	 0.000000	 0.000000	 0.000000	 0.000000	 0.000000	 7.439729	 34.600560	-0.539615	-4.245975	-19.906080	 1.300444	 121.713300	-1.909846	-89.985180	-2.826785	 11.343350	 14.549400	-36.813610	 0.819075	-52.346500	-3.763581	-30.755340	-2.047799	 15.208500	 5.323790	 0.000000	 0.000000	 0.000000	 0.000000	 0.000000	 0.000000	 0.000000
 0.447324	 1.260007	 0.507159	 1.412477	-19.124800	-174.009900	 170.027100	 32.980570	 22.482630	 6.176104	-22.046640	 13.796110	 8.772081	 68.362800	-15.319760	 1.292262	 28.425850	-2.713146	-176.993800	 35.209870	-12.511550	-4.431388	-21.899650	-4.375222	 3.068322	 66.554500	 1.488455	-1.288183	 28.361890	 2.710176	 0.301917	 11.258340	-0.895289	 0.343055	-0.913675	-0.932480	 1.064323	 12.649740	 0.936872	-122.317200	 9.044540	 94.964680	 12.436240	 18.454700	 8.951138	 49.162080	-3.522981	 22.183350	-9.480067	-49.324670	-0.646031	-6.580301	 5.266122	 0.000000	 0.000000	 0.000000	 0.000000	 0.000000	 0.000000	 0.000000	 7.850949	 35.303520	-2.676445	-3.374674	-25.412980	 0.683026	 125.192900	 8.117755	-95.427130	-16.561910	 24.030510	 9.853649	-40.902370	 0.894968	-41.305830	-10.938120	-48.215620	-11.391590	 15.208500	 5.323790	 0.000000	 0.000000	 0.000000	 0.000000	 0.000000	 0.000000	 0.000000
 0.451034	 1.255983	 0.523748	 1.809196	-22.584230	-172.860100	 168.983300	 37.592440	 23.794830	 6.199664	-22.122350	 15.220310	 9.151710	 67.570640	-17.528590	 1.292262	 28.425850	-2.713146	-177.493600	 40.239900	-10.791650	-4.648233	-22.861160	-4.720519	 4.582092	 66.055230	 1.216530	-1.288183	 28.361890	 2.710176	 0.442116	 11.308540	-0.812451	 0.671887	 0.759013	-0.905000	 1.209158	 11.735500	 0.547100	-121.666400	 11.614210	 96.184640	 15.260600	 18.525660	 8.175551	 49.325640	-3.531581	 22.457550	-7.853480	-51.568540	-1.364044	-6.580301	 5.266122	 0.000000	 0.000000	 0.000000	 0.000000	 0.000000	 0.000000	 0.000000	 6.903523	 34.624830	-2.442073	-2.995661	-26.584850	 0.421714	 124.779700	 10.836050	-96.826290	-19.942690	 24.338770	 10.789010	-41.125870	 0.899014	-39.611750	-12.192680	-50.951550	-10.978030	 15.208500	 5.323790	 0.000000	 0.000000	 0.000000	 0.000000	 0.000000	 0.000000	 0.000000
